<svg xmlns="http://www.w3.org/2000/svg" viewBox="0 0 64 64" class="svgDice"><title>dice6</title><path class="svgFill" d="M57,4H7A3,3,0,0,0,4,7V57a3,3,0,0,0,3,3H57a3,3,0,0,0,3-3V7A3,3,0,0,0,57,4Zm1,53a1,1,0,0,1-1,1H7a1,1,0,0,1-1-1V7A1,1,0,0,1,7,6H57a1,1,0,0,1,1,1Z"/><circle class="svgFill" cx="42.2" cy="16.71" r="5.29"/><circle cx="42.2" cy="32" r="5.29"/><circle class="svgFill" cx="42.2" cy="47.29" r="5.29"/><circle class="svgFill" cx="21.8" cy="16.71" r="5.29"/><circle cx="21.8" cy="32" r="5.29"/><circle class="svgFill" cx="21.8" cy="47.29" r="5.29"/></svg>
